<svg viewBox="0 0 40 40" fill="none" xmlns="http://www.w3.org/2000/svg">
<mask id="mask0_1_9461" style="mask-type:alpha" maskUnits="userSpaceOnUse" x="0" y="0" width="40" height="40">
<rect width="40" height="40" fill="#D9D9D9"/>
</mask>
<g mask="url(#mask0_1_9461)">
<path d="M8.84625 31.0116C8.46486 31.0116 8.14514 30.8842 7.88708 30.6295C7.62903 30.3748 7.5 30.0591 7.5 29.6824C7.5 29.3057 7.62903 28.987 7.88708 28.7261C8.14514 28.4656 8.46486 28.3353 8.84625 28.3353H21.25C21.6042 28.3353 21.901 28.4567 22.1404 28.6995C22.3801 28.942 22.5 29.2425 22.5 29.6011C22.5 29.9553 22.3803 30.2523 22.1408 30.492C21.9017 30.7314 21.61 30.8511 21.2658 30.8511L8.84625 31.0116ZM8.75 24.4411C8.39583 24.4411 8.09903 24.3213 7.85958 24.0816C7.61986 23.8418 7.5 23.5448 7.5 23.1903C7.5 22.8361 7.61986 22.5393 7.85958 22.2999C8.09903 22.0607 8.39583 21.9411 8.75 21.9411H31.25C31.6042 21.9411 31.901 22.061 32.1404 22.3007C32.3801 22.5405 32.5 22.8374 32.5 23.1916C32.5 23.546 32.3801 23.8428 32.1404 24.082C31.901 24.3214 31.6042 24.4411 31.25 24.4411H8.75ZM8.75 18.0628C8.39583 18.0628 8.09903 17.943 7.85958 17.7032C7.61986 17.4635 7.5 17.1666 7.5 16.8124C7.5 16.458 7.61986 16.1611 7.85958 15.922C8.09903 15.6825 8.39583 15.5628 8.75 15.5628H31.25C31.6042 15.5628 31.901 15.6827 32.1404 15.9224C32.3801 16.1621 32.5 16.4592 32.5 16.8136C32.5 17.1678 32.3801 17.4646 32.1404 17.7041C31.901 17.9432 31.6042 18.0628 31.25 18.0628H8.75ZM8.84625 11.6686C8.46486 11.6686 8.14514 11.5396 7.88708 11.2816C7.62903 11.0235 7.5 10.7038 7.5 10.3224C7.5 9.94101 7.62903 9.62128 7.88708 9.36323C8.14514 9.10545 8.46486 8.97656 8.84625 8.97656H31.1537C31.5351 8.97656 31.8549 9.10545 32.1129 9.36323C32.371 9.62128 32.5 9.94101 32.5 10.3224C32.5 10.7038 32.371 11.0235 32.1129 11.2816C31.8549 11.5396 31.5351 11.6686 31.1537 11.6686H8.84625Z" fill="#17171B"/>
</g>
</svg>
