<svg viewBox="0 0 40 40" fill="none" xmlns="http://www.w3.org/2000/svg">
<mask id="mask0_1_9669" style="mask-type:alpha" maskUnits="userSpaceOnUse" x="0" y="0" width="40" height="40">
<rect width="40" height="40" fill="#D9D9D9"/>
</mask>
<g mask="url(#mask0_1_9669)">
<path d="M7.08398 34.1693C6.72982 34.1693 6.43301 34.0494 6.19357 33.8097C5.95385 33.57 5.83398 33.273 5.83398 32.9189C5.83398 32.5644 5.95385 32.2676 6.19357 32.0284C6.43301 31.789 6.72982 31.6693 7.08398 31.6693H32.9173C33.2715 31.6693 33.5683 31.7891 33.8077 32.0289C34.0475 32.2686 34.1673 32.5655 34.1673 32.9197C34.1673 33.2741 34.0475 33.5709 33.8077 33.8101C33.5683 34.0496 33.2715 34.1693 32.9173 34.1693H7.08398ZM7.08398 27.7109C6.72982 27.7109 6.43301 27.5911 6.19357 27.3514C5.95385 27.1116 5.83398 26.8147 5.83398 26.4605C5.83398 26.1061 5.95385 25.8093 6.19357 25.5701C6.43301 25.3307 6.72982 25.2109 7.08398 25.2109H32.9173C33.2715 25.2109 33.5683 25.3308 33.8077 25.5705C34.0475 25.8102 34.1673 26.1072 34.1673 26.4614C34.1673 26.8158 34.0475 27.1126 33.8077 27.3518C33.5683 27.5912 33.2715 27.7109 32.9173 27.7109H7.08398ZM7.08398 21.2526C6.72982 21.2526 6.43301 21.1327 6.19357 20.893C5.95385 20.6533 5.83398 20.3564 5.83398 20.0022C5.83398 19.6477 5.95385 19.3509 6.19357 19.1118C6.43301 18.8723 6.72982 18.7526 7.08398 18.7526H32.9173C33.2715 18.7526 33.5683 18.8725 33.8077 19.1122C34.0475 19.3519 34.1673 19.6489 34.1673 20.003C34.1673 20.3575 34.0475 20.6543 33.8077 20.8934C33.5683 21.1329 33.2715 21.2526 32.9173 21.2526H7.08398ZM7.08398 14.7943C6.72982 14.7943 6.43301 14.6744 6.19357 14.4347C5.95385 14.195 5.83398 13.898 5.83398 13.5439C5.83398 13.1894 5.95385 12.8926 6.19357 12.6534C6.43301 12.414 6.72982 12.2943 7.08398 12.2943H32.9173C33.2715 12.2943 33.5683 12.4141 33.8077 12.6539C34.0475 12.8936 34.1673 13.1905 34.1673 13.5447C34.1673 13.8991 34.0475 14.1959 33.8077 14.4351C33.5683 14.6745 33.2715 14.7943 32.9173 14.7943H7.08398ZM7.08398 8.33594C6.72982 8.33594 6.43301 8.21608 6.19357 7.97635C5.95385 7.73663 5.83398 7.43969 5.83398 7.08552C5.83398 6.73108 5.95385 6.43427 6.19357 6.1951C6.43301 5.95566 6.72982 5.83594 7.08398 5.83594H32.9173C33.2715 5.83594 33.5683 5.9558 33.8077 6.19552C34.0475 6.43524 34.1673 6.73219 34.1673 7.08635C34.1673 7.4408 34.0475 7.7376 33.8077 7.97677C33.5683 8.21622 33.2715 8.33594 32.9173 8.33594H7.08398Z" fill="#17171B"/>
</g>
</svg>
