<svg viewBox="0 0 40 40" fill="none" xmlns="http://www.w3.org/2000/svg">
<mask id="mask0_1_9666" style="mask-type:alpha" maskUnits="userSpaceOnUse" x="0" y="0" width="40" height="40">
<rect width="40" height="40" fill="#D9D9D9"/>
</mask>
<g mask="url(#mask0_1_9666)">
<path d="M7.08398 34.1693C6.72982 34.1693 6.43301 34.0494 6.19357 33.8097C5.95385 33.57 5.83398 33.273 5.83398 32.9189C5.83398 32.5644 5.95385 32.2676 6.19357 32.0284C6.43301 31.789 6.72982 31.6693 7.08398 31.6693H32.9173C33.2715 31.6693 33.5683 31.7891 33.8077 32.0289C34.0475 32.2686 34.1673 32.5655 34.1673 32.9197C34.1673 33.2741 34.0475 33.5709 33.8077 33.8101C33.5683 34.0496 33.2715 34.1693 32.9173 34.1693H7.08398ZM13.7507 27.7109C13.3965 27.7109 13.0997 27.5911 12.8602 27.3514C12.6205 27.1116 12.5007 26.8147 12.5007 26.4605C12.5007 26.1061 12.6205 25.8093 12.8602 25.5701C13.0997 25.3307 13.3965 25.2109 13.7507 25.2109H26.2507C26.6048 25.2109 26.9016 25.3308 27.1411 25.5705C27.3808 25.8102 27.5007 26.1072 27.5007 26.4614C27.5007 26.8158 27.3808 27.1126 27.1411 27.3518C26.9016 27.5912 26.6048 27.7109 26.2507 27.7109H13.7507ZM7.08398 21.2526C6.72982 21.2526 6.43301 21.1327 6.19357 20.893C5.95385 20.6533 5.83398 20.3564 5.83398 20.0022C5.83398 19.6477 5.95385 19.3509 6.19357 19.1118C6.43301 18.8723 6.72982 18.7526 7.08398 18.7526H32.9173C33.2715 18.7526 33.5683 18.8725 33.8077 19.1122C34.0475 19.3519 34.1673 19.6489 34.1673 20.003C34.1673 20.3575 34.0475 20.6543 33.8077 20.8934C33.5683 21.1329 33.2715 21.2526 32.9173 21.2526H7.08398ZM13.7507 14.7943C13.3965 14.7943 13.0997 14.6744 12.8602 14.4347C12.6205 14.195 12.5007 13.898 12.5007 13.5439C12.5007 13.1894 12.6205 12.8926 12.8602 12.6534C13.0997 12.414 13.3965 12.2943 13.7507 12.2943H26.2507C26.6048 12.2943 26.9016 12.4141 27.1411 12.6539C27.3808 12.8936 27.5007 13.1905 27.5007 13.5447C27.5007 13.8991 27.3808 14.1959 27.1411 14.4351C26.9016 14.6745 26.6048 14.7943 26.2507 14.7943H13.7507ZM7.08398 8.33594C6.72982 8.33594 6.43301 8.21608 6.19357 7.97635C5.95385 7.73663 5.83398 7.43969 5.83398 7.08552C5.83398 6.73108 5.95385 6.43427 6.19357 6.1951C6.43301 5.95566 6.72982 5.83594 7.08398 5.83594H32.9173C33.2715 5.83594 33.5683 5.9558 33.8077 6.19552C34.0475 6.43524 34.1673 6.73219 34.1673 7.08635C34.1673 7.4408 34.0475 7.7376 33.8077 7.97677C33.5683 8.21622 33.2715 8.33594 32.9173 8.33594H7.08398Z" fill="#17171B"/>
</g>
</svg>
