<svg viewBox="0 0 40 40" fill="none" xmlns="http://www.w3.org/2000/svg">
<mask id="mask0_1_9662" style="mask-type:alpha" maskUnits="userSpaceOnUse" x="0" y="0" width="40" height="40">
<rect width="40" height="40" fill="#D9D9D9"/>
</mask>
<g mask="url(#mask0_1_9662)">
<path d="M5.41602 22.9004C5.06185 22.9004 4.76504 22.7807 4.5256 22.5412C4.28588 22.3015 4.16602 22.0044 4.16602 21.65C4.16602 21.2958 4.28588 20.999 4.5256 20.7596C4.76504 20.5204 5.06185 20.4008 5.41602 20.4008H34.5827C34.9368 20.4008 35.2337 20.5206 35.4731 20.76C35.7128 20.9997 35.8327 21.2968 35.8327 21.6512C35.8327 22.0054 35.7128 22.3022 35.4731 22.5417C35.2337 22.7808 34.9368 22.9004 34.5827 22.9004H5.41602ZM18.2364 17.0996V11.0417H10.9448C10.455 11.0417 10.0389 10.8701 9.69643 10.5271C9.35365 10.1838 9.18227 9.76708 9.18227 9.27708C9.18227 8.78681 9.35365 8.36806 9.69643 8.02083C10.0389 7.67361 10.455 7.5 10.9448 7.5H29.0698C29.5595 7.5 29.9757 7.67153 30.3185 8.01458C30.6613 8.35792 30.8327 8.77458 30.8327 9.26458C30.8327 9.75486 30.6613 10.1736 30.3185 10.5208C29.9757 10.8681 29.5595 11.0417 29.0698 11.0417H21.7781V17.0996H18.2364ZM18.2364 26.2021H21.7781V30.7371C21.7781 31.2268 21.6066 31.6431 21.2635 31.9858C20.9205 32.3286 20.5038 32.5 20.0135 32.5C19.5232 32.5 19.1045 32.3271 18.7573 31.9813C18.41 31.6354 18.2364 31.2154 18.2364 30.7212V26.2021Z" fill="#17171B"/>
</g>
</svg>
