<svg viewBox="0 0 40 40" fill="none" xmlns="http://www.w3.org/2000/svg">
<mask id="mask0_1_9659" style="mask-type:alpha" maskUnits="userSpaceOnUse" x="0" y="0" width="40" height="40">
<rect width="40" height="40" fill="#D9D9D9"/>
</mask>
<g mask="url(#mask0_1_9659)">
<path d="M5.67268 40.0026C5.24296 40.0026 4.88449 39.8589 4.59727 39.5714C4.30977 39.2841 4.16602 38.9258 4.16602 38.4964V35.2909C4.16602 34.8615 4.30977 34.5032 4.59727 34.2159C4.88449 33.9284 5.24296 33.7847 5.67268 33.7847H34.326C34.7557 33.7847 35.1142 33.9284 35.4014 34.2159C35.6889 34.5032 35.8327 34.8615 35.8327 35.2909V38.4964C35.8327 38.9258 35.6889 39.2841 35.4014 39.5714C35.1142 39.8589 34.7557 40.0026 34.326 40.0026H5.67268ZM11.7781 28.3359C11.2995 28.3359 10.9235 28.1372 10.6502 27.7397C10.3766 27.3425 10.3242 26.9184 10.4931 26.4676L18.2431 6.70136C18.3392 6.4408 18.5005 6.23135 18.7268 6.07302C18.9535 5.91497 19.2025 5.83594 19.4739 5.83594H20.5248C20.8134 5.83594 21.0667 5.91497 21.2848 6.07302C21.5025 6.23135 21.6595 6.4408 21.7556 6.70136L29.5152 26.4451C29.6841 26.9065 29.6291 27.337 29.3502 27.7368C29.0713 28.1362 28.6925 28.3359 28.2139 28.3359C27.9214 28.3359 27.6512 28.2543 27.4031 28.0909C27.1553 27.9273 26.978 27.6991 26.871 27.4064L24.9739 22.3039H15.0123L13.0635 27.448C12.9566 27.7302 12.7888 27.9487 12.5602 28.1034C12.3316 28.2584 12.0709 28.3359 11.7781 28.3359ZM15.8902 19.8359H24.0443L20.0827 9.33594H19.8839L15.8902 19.8359Z" fill="#17171B"/>
</g>
</svg>
