<svg viewBox="0 0 40 40" fill="current" xmlns="http://www.w3.org/2000/svg">
<mask id="mask0_1_15150" style="mask-type:alpha" maskUnits="userSpaceOnUse" x="0" y="0" width="40" height="40">
<rect width="40" height="40" fill="#D9D9D9"/>
</mask>
<g mask="url(#mask0_1_15150)">
<path d="M8.84885 34.1693C8.00691 34.1693 7.29427 33.8776 6.71094 33.2943C6.1276 32.7109 5.83594 31.9983 5.83594 31.1564V8.84885C5.83594 8.00691 6.1276 7.29427 6.71094 6.71094C7.29427 6.1276 8.00691 5.83594 8.84885 5.83594H20.0989C20.453 5.83594 20.7498 5.9558 20.9893 6.19552C21.229 6.43524 21.3489 6.73219 21.3489 7.08635C21.3489 7.4408 21.229 7.7376 20.9893 7.97677C20.7498 8.21622 20.453 8.33594 20.0989 8.33594H8.84885C8.69913 8.33594 8.57622 8.38399 8.4801 8.48011C8.38399 8.57622 8.33594 8.69913 8.33594 8.84885V31.1564C8.33594 31.3061 8.38399 31.429 8.4801 31.5251C8.57622 31.6212 8.69913 31.6693 8.84885 31.6693H31.1564C31.3061 31.6693 31.429 31.6212 31.5251 31.5251C31.6212 31.429 31.6693 31.3061 31.6693 31.1564V19.9064C31.6693 19.5522 31.7891 19.2554 32.0289 19.0159C32.2686 18.7762 32.5655 18.6564 32.9197 18.6564C33.2741 18.6564 33.5709 18.7762 33.8101 19.0159C34.0496 19.2554 34.1693 19.5522 34.1693 19.9064V31.1564C34.1693 31.9983 33.8776 32.7109 33.2943 33.2943C32.7109 33.8776 31.9983 34.1693 31.1564 34.1693H8.84885ZM10.6439 27.823H29.3614L23.5443 20.0668L18.5443 26.5572L15.0026 22.0539L10.6439 27.823ZM28.3359 11.6693H26.2526C25.8984 11.6693 25.6015 11.5494 25.3618 11.3097C25.1223 11.07 25.0026 10.773 25.0026 10.4189C25.0026 10.0644 25.1223 9.7676 25.3618 9.52844C25.6015 9.28899 25.8984 9.16927 26.2526 9.16927H28.3359V7.08594C28.3359 6.73177 28.4558 6.43497 28.6955 6.19552C28.9352 5.9558 29.2322 5.83594 29.5864 5.83594C29.9408 5.83594 30.2376 5.9558 30.4768 6.19552C30.7162 6.43497 30.8359 6.73177 30.8359 7.08594V9.16927H32.9193C33.2734 9.16927 33.5702 9.28913 33.8097 9.52885C34.0494 9.76858 34.1693 10.0655 34.1693 10.4197C34.1693 10.7741 34.0494 11.0709 33.8097 11.3101C33.5702 11.5495 33.2734 11.6693 32.9193 11.6693H30.8359V13.7526C30.8359 14.1068 30.7161 14.4037 30.4764 14.6434C30.2366 14.8829 29.9397 15.0026 29.5855 15.0026C29.2311 15.0026 28.9343 14.8829 28.6951 14.6434C28.4557 14.4037 28.3359 14.1068 28.3359 13.7526V11.6693Z" fill="current"/>
</g>
</svg>
