<svg viewBox="0 0 40 40" fill="none" xmlns="http://www.w3.org/2000/svg">
<mask id="mask0_1_9653" style="mask-type:alpha" maskUnits="userSpaceOnUse" x="0" y="0" width="40" height="40">
<rect width="40" height="40" fill="#D9D9D9"/>
</mask>
<g mask="url(#mask0_1_9653)">
<path d="M10.4965 31.0443C10.0748 31.0443 9.71829 30.8986 9.4269 30.6072C9.13579 30.3155 8.99023 29.9586 8.99023 29.5364C8.99023 29.1144 9.13579 28.758 9.4269 28.4672C9.71829 28.1766 10.0748 28.0314 10.4965 28.0314H15.3523L20.7532 11.9739H15.8973C15.4757 11.9739 15.1191 11.828 14.8277 11.5364C14.5366 11.245 14.3911 10.8882 14.3911 10.4659C14.3911 10.0437 14.5366 9.68733 14.8277 9.39677C15.1191 9.10622 15.4757 8.96094 15.8973 8.96094H28.1411C28.5627 8.96094 28.9191 9.10663 29.2102 9.39802C29.5016 9.68969 29.6473 10.0466 29.6473 10.4689C29.6473 10.8908 29.5016 11.2472 29.2102 11.538C28.9191 11.8286 28.5627 11.9739 28.1411 11.9739H23.7977L18.3973 28.0314H22.7402C23.1619 28.0314 23.5184 28.1772 23.8098 28.4689C24.1009 28.7602 24.2465 29.1171 24.2465 29.5393C24.2465 29.9615 24.1009 30.3179 23.8098 30.6084C23.5184 30.899 23.1619 31.0443 22.7402 31.0443H10.4965Z" fill="#17171B"/>
</g>
</svg>
