<svg viewBox="0 0 40 40" fill="none" xmlns="http://www.w3.org/2000/svg">
<mask id="mask0_1_9650" style="mask-type:alpha" maskUnits="userSpaceOnUse" x="0" y="0" width="40" height="40">
<rect width="40" height="40" fill="#D9D9D9"/>
</mask>
<g mask="url(#mask0_1_9650)">
<path d="M14.7626 31.0443C14.0595 31.0443 13.4617 30.798 12.9692 30.3055C12.4767 29.813 12.2305 29.2152 12.2305 28.5122V11.493C12.2305 10.79 12.4767 10.1922 12.9692 9.69969C13.4617 9.20719 14.0595 8.96094 14.7626 8.96094H20.333C22.0316 8.96094 23.5674 9.48983 24.9405 10.5476C26.3132 11.6051 26.9996 13.0293 26.9996 14.8201C26.9996 16.0657 26.6988 17.0811 26.0971 17.8664C25.4957 18.6516 24.8478 19.2216 24.1534 19.5764C25.0081 19.8711 25.8244 20.4539 26.6021 21.3247C27.3799 22.1955 27.7688 23.368 27.7688 24.8422C27.7688 26.9725 26.9835 28.5387 25.413 29.5409C23.8424 30.5432 22.2602 31.0443 20.6663 31.0443H14.7626ZM15.8138 27.7239H20.5317C21.8437 27.7239 22.771 27.3596 23.3138 26.6309C23.8566 25.9023 24.128 25.2036 24.128 24.5347C24.128 23.8658 23.8566 23.167 23.3138 22.4384C22.771 21.7098 21.818 21.3455 20.4546 21.3455H15.8138V27.7239ZM15.8138 18.1276H20.1376C21.1503 18.1276 21.9532 17.838 22.5463 17.2589C23.1391 16.68 23.4355 15.9866 23.4355 15.1789C23.4355 14.32 23.122 13.618 22.4951 13.073C21.8678 12.5283 21.0991 12.2559 20.1888 12.2559H15.8138V18.1276Z" fill="#17171B"/>
</g>
</svg>
