<svg viewBox="0 0 40 40" fill="none" xmlns="http://www.w3.org/2000/svg">
<mask id="mask0_1_9656" style="mask-type:alpha" maskUnits="userSpaceOnUse" x="0" y="0" width="40" height="40">
<rect width="40" height="40" fill="#D9D9D9"/>
</mask>
<g mask="url(#mask0_1_9656)">
<path d="M10.1602 33.54C9.80599 33.54 9.50904 33.4201 9.26932 33.1804C9.02988 32.9407 8.91016 32.6436 8.91016 32.2892C8.91016 31.935 9.02988 31.6382 9.26932 31.3988C9.50904 31.1596 9.80599 31.04 10.1602 31.04H29.8393C30.1935 31.04 30.4904 31.1599 30.7302 31.3996C30.9696 31.6393 31.0893 31.9363 31.0893 32.2904C31.0893 32.6449 30.9696 32.9417 30.7302 33.1808C30.4904 33.4203 30.1935 33.54 29.8393 33.54H10.1602ZM19.9997 27.5462C17.4078 27.5462 15.3849 26.7594 13.931 25.1858C12.4768 23.6122 11.7497 21.5038 11.7497 18.8604V7.21958C11.7497 6.79903 11.9049 6.43847 12.2152 6.13792C12.5254 5.83764 12.8909 5.6875 13.3114 5.6875C13.7317 5.6875 14.0914 5.83764 14.3906 6.13792C14.6897 6.43847 14.8393 6.79903 14.8393 7.21958V19.0142C14.8393 20.6981 15.287 22.0475 16.1822 23.0625C17.0775 24.0775 18.35 24.585 19.9997 24.585C21.6495 24.585 22.922 24.0775 23.8172 23.0625C24.7125 22.0475 25.1602 20.6981 25.1602 19.0142V7.21958C25.1602 6.79903 25.3153 6.43847 25.6256 6.13792C25.9359 5.83764 26.3013 5.6875 26.7218 5.6875C27.1421 5.6875 27.5018 5.83764 27.801 6.13792C28.1002 6.43847 28.2497 6.79903 28.2497 7.21958V18.8604C28.2497 21.5038 27.5227 23.6122 26.0685 25.1858C24.6146 26.7594 22.5917 27.5462 19.9997 27.5462Z" fill="#17171B"/>
</g>
</svg>
