<svg viewBox="0 0 40 40" fill="none" xmlns="http://www.w3.org/2000/svg">
<mask id="mask0_1_9675" style="mask-type:alpha" maskUnits="userSpaceOnUse" x="0" y="0" width="40" height="40">
<rect width="40" height="40" fill="#D9D9D9"/>
</mask>
<g mask="url(#mask0_1_9675)">
<path d="M17.084 29.391C16.7298 29.391 16.433 29.2712 16.1936 29.0315C15.9538 28.792 15.834 28.4951 15.834 28.1406C15.834 27.7865 15.9538 27.4897 16.1936 27.2502C16.433 27.011 16.7298 26.8915 17.084 26.8915H32.9173C33.2715 26.8915 33.5683 27.0112 33.8077 27.2506C34.0475 27.4903 34.1673 27.7874 34.1673 28.1419C34.1673 28.496 34.0475 28.7928 33.8077 29.0323C33.5683 29.2715 33.2715 29.391 32.9173 29.391H17.084ZM17.084 21.2502C16.7298 21.2502 16.433 21.1303 16.1936 20.8906C15.9538 20.6509 15.834 20.354 15.834 19.9998C15.834 19.6453 15.9538 19.3485 16.1936 19.1094C16.433 18.8699 16.7298 18.7502 17.084 18.7502H32.9173C33.2715 18.7502 33.5683 18.8701 33.8077 19.1098C34.0475 19.3495 34.1673 19.6465 34.1673 20.0006C34.1673 20.3551 34.0475 20.6519 33.8077 20.891C33.5683 21.1305 33.2715 21.2502 32.9173 21.2502H17.084ZM7.08398 13.109C6.72982 13.109 6.43301 12.9892 6.19357 12.7498C5.95385 12.5101 5.83398 12.213 5.83398 11.8585C5.83398 11.5044 5.95385 11.2076 6.19357 10.9681C6.43301 10.729 6.72982 10.6094 7.08398 10.6094H32.9173C33.2715 10.6094 33.5683 10.7292 33.8077 10.969C34.0475 11.2084 34.1673 11.5053 34.1673 11.8598C34.1673 12.214 34.0475 12.5108 33.8077 12.7502C33.5683 12.9894 33.2715 13.109 32.9173 13.109H7.08398Z" fill="#17171B"/>
</g>
</svg>
