<svg width="24" height="24" viewBox="0 0 24 24" fill="none" xmlns="http://www.w3.org/2000/svg">
<mask id="mask0_1_9424" style="mask-type:alpha" maskUnits="userSpaceOnUse" x="0" y="0" width="24" height="24">
<rect x="24" width="24" height="24" transform="rotate(90 24 0)" fill="#D9D9D9"/>
</mask>
<g mask="url(#mask0_1_9424)">
<path d="M7.55541 8.5L16.4439 8.5C16.7079 8.5 16.9246 8.59058 17.0939 8.77175C17.2631 8.95292 17.3477 9.16433 17.3477 9.406C17.3477 9.4815 17.3367 9.56067 17.3149 9.6435C17.2932 9.72633 17.2606 9.80542 17.2169 9.88075L12.7632 16.8767C12.6695 17.0141 12.5573 17.117 12.4267 17.1855C12.2958 17.2542 12.1535 17.2885 11.9997 17.2885C11.8458 17.2885 11.7035 17.2542 11.5727 17.1855C11.442 17.117 11.3298 17.0141 11.2362 16.8767L6.78241 9.88075C6.73874 9.80525 6.70607 9.72592 6.68441 9.64275C6.66257 9.55975 6.65166 9.4805 6.65166 9.405C6.65166 9.16317 6.73624 8.95192 6.90541 8.77125C7.07474 8.59042 7.29141 8.5 7.55541 8.5Z" fill="#808080"/>
</g>
</svg>
